<svg xmlns="http://www.w3.org/2000/svg" fill="none" class="size-4" viewBox="0 0 32 33"><path fill="currentColor" d="M25.775 5.136H6.225A1.725 1.725 0 0 0 4.5 6.861v19.55a1.725 1.725 0 0 0 1.725 1.725h19.55a1.725 1.725 0 0 0 1.725-1.725V6.861a1.725 1.725 0 0 0-1.725-1.725ZM11.4 24.686H7.95v-10.35h3.45v10.35ZM9.675 12.324a2.013 2.013 0 1 1 2.07-2.013 2.047 2.047 0 0 1-2.07 2.013ZM24.05 24.686H20.6v-5.45c0-1.634-.69-2.22-1.587-2.22a2.001 2.001 0 0 0-1.863 2.139.76.76 0 0 0 0 .16v5.371H13.7v-10.35h3.335v1.495a3.576 3.576 0 0 1 3.105-1.61c1.782 0 3.864.99 3.864 4.21l.046 6.255Z"/></svg>