<svg xmlns="http://www.w3.org/2000/svg" fill="none" class="size-4" viewBox="0 0 32 33"><path fill="currentColor" d="M16 5.636c-4.078 0-7.688.422-9.883.75-1.797.266-3.226 1.672-3.554 3.477C2.28 11.44 2 13.746 2 16.636c0 2.891.281 5.196.563 6.774a4.282 4.282 0 0 0 3.554 3.476c2.203.329 5.828.75 9.883.75 4.055 0 7.672-.421 9.875-.75h.008c1.797-.265 3.226-1.671 3.555-3.476.28-1.586.562-3.89.562-6.774 0-2.89-.281-5.195-.57-6.773-.32-1.805-1.75-3.211-3.547-3.477-2.195-.328-5.805-.75-9.883-.75Zm0 2c3.938 0 7.46.407 9.586.727.937.14 1.695.875 1.875 1.851.266 1.477.539 3.665.539 6.422 0 2.758-.273 4.946-.531 6.414-.18.985-.938 1.72-1.883 1.86-2.14.312-5.672.726-9.586.726-3.914 0-7.453-.414-9.586-.726-.937-.14-1.703-.875-1.883-1.86C4.273 21.574 4 19.394 4 16.636c0-2.765.273-4.945.531-6.421.18-.977.938-1.711 1.875-1.844h.008c2.125-.32 5.649-.735 9.586-.735Zm-4 4v10l10-5-10-5Z"/></svg>