<svg xmlns="http://www.w3.org/2000/svg" viewBox="0 0 24 24" fill="#0d9488">
  <path d="M0 0h24v24H0V0z" fill="none"/>
  <path d="M16.56 8.94c-.24-.24-.65-.07-.65.29 0 .12.02.23.06.33 1.04 3.11-.75 6.49-3.85 7.65-1.51.63-3.21.55-4.64-.31-.29-.15-.65-.08-.85.16-.46.58-1.01 1.05-1.65 1.39-.42.25-.95.38-1.48.33-.27-.03-.51.18-.51.45V20c0 .55.45 1 1 1h12c.55 0 1-.45 1-1v-5.61c.03-.27-.18-.51-.45-.51-.13-.01-.26.02-.37.08-.27.11-.59.05-.78-.13zm-3.07 2.56c.32-.43.7-.81 1.13-1.13.48-.35.49-1.03.02-1.41-.25-.19-.57-.27-.88-.22-.69.1-1.3.51-1.73 1.1-.41.55-.59 1.22-.52 1.91.04.49.24.94.58 1.29.35.35.8.54 1.29.58.7.08 1.36-.11 1.91-.52.59-.43 1-1.04 1.1-1.73.05-.31-.03-.63-.22-.88-.39-.48-1.07-.47-1.42.02-.32.43-.7.81-1.12 1.13-.48.35-.49 1.03-.02 1.41.25.19.57.27.88.22.69-.1 1.3-.51 1.73-1.1.41-.55.59-1.22.52-1.91-.04-.49-.24-.94-.58-1.29-.35-.35-.8-.54-1.29-.58-.7-.08-1.36.11-1.91.52-.59.43-1 1.04-1.1 1.73-.05.31.03.63.22.88zm-.75 6.86l-1.71-1.71c-.31-.31-.85-.09-.85.35v3.57c0 .28.36.47.64.35l1.72-1.72c.2-.2.2-.51 0-.71zm5.61-5.42c-.17-.17-.45-.17-.62 0l-1.72 1.72c-.28.28-.64.09-.64-.35V8.12c0-.44.54-.66.85-.35l1.71 1.71c.2.2.2.51 0 .71z"/>
</svg>
