<svg width="568" height="154" viewBox="0 0 568 154" fill="none" xmlns="http://www.w3.org/2000/svg">
<g clip-path="url(#clip0_1201_2)">
<mask id="mask0_1201_2" style="mask-type:luminance" maskUnits="userSpaceOnUse" x="0" y="0" width="568" height="155">
<path d="M0 0H567.82V154.01H0V0Z" fill="white"/>
</mask>
<g mask="url(#mask0_1201_2)">
<path d="M257.93 45.44L254.01 57.5C251.03 55.78 246.8 54.84 242.57 54.84C228.47 54.84 220.16 65.65 220.16 84.14V122.21H207.31V44.65H220.16V74.11H220.47C220.47 54.53 229.87 43.09 245.85 43.09C250.39 43.09 254.78 43.87 257.91 45.44H257.93ZM335.79 85.39H276.57C277.2 103.25 285.81 113.59 299.92 113.59C312.45 113.59 321.07 106.54 323.11 94.95H335.8C333.29 113.12 319.98 123.78 299.92 123.78C277.36 123.78 263.88 108.9 263.88 83.51C263.88 58.12 277.35 43.09 299.92 43.09C322.49 43.09 335.8 57.97 335.8 83.51V85.39H335.79ZM276.73 78.96H322.95C321.7 62.67 313.24 53.26 299.92 53.26C286.6 53.26 277.98 62.66 276.73 78.96ZM412.72 44.65H425.57V122.21H412.72V96.67H412.41C412.41 113.59 401.6 123.77 383.74 123.77C363.06 123.77 350.84 108.73 350.84 83.35C350.84 57.97 363.06 43.08 383.74 43.08C401.6 43.08 412.41 53.11 412.41 70.03H412.72V44.65ZM413.66 83.35C413.66 65.02 404.57 53.58 388.75 53.58C372.93 53.58 364 64.7 364 83.35C364 102 373.09 113.12 388.75 113.12C404.41 113.12 413.66 101.68 413.66 83.35ZM449.84 122.21V1.57H462.69V122.21H449.84ZM510.01 43.56H567.82V122.21H547.14V57.81H511.1V122.2H490.42V57.81H478.51V43.55H509.22V43.24C496.69 40.89 489.32 33.84 489.32 23.81C489.32 8.77 500.76 0 520.03 0C525.83 0 531.62 1.1 536.17 3.13L533.51 18.48C531 17.07 528.18 16.44 525.05 16.44C515.18 16.44 510.01 21.92 510.01 31.01V43.56ZM547.14 8.93H567.82V28.51H547.14V8.93Z" fill="white"/>
<path d="M97.12 23.41L83.33 15.46V69.26L97.12 61.3V23.41ZM113.52 61.45V54.86L66.93 81.76V97.68L105.45 75.44C110.43 72.56 113.53 67.2 113.53 61.45H113.52ZM113.52 32.89L99.74 24.93V59.79L113.52 51.83V32.89ZM42.19 84.9L64.3 97.67V81.75L57.28 77.7C54.4286 76.0487 52.0606 73.6778 50.4128 70.8244C48.765 67.971 47.895 64.735 47.89 61.44V15.46L34.1 23.42V70.92C34.1 76.67 37.19 82.03 42.18 84.91L42.19 84.9Z" fill="white"/>
<path d="M25.79 94.38L64.31 116.62V100.7L40.89 87.18C38.0386 85.5287 35.6706 83.1578 34.0228 80.3044C32.3749 77.451 31.505 74.215 31.5 70.92V24.93L17.71 32.89V80.39C17.71 86.14 20.8 91.5 25.79 94.38ZM66.93 78.73L80.72 70.77V13.94L74.36 10.27C72.088 8.96364 69.553 8.18126 66.94 7.97998V78.73H66.93Z" fill="white"/>
<path d="M64.31 119.64L24.48 96.65C21.6286 94.9987 19.2606 92.6278 17.6128 89.7744C15.965 86.921 15.095 83.685 15.09 80.39V34.4L8.73 38.07C3.33 41.19 0 46.96 0 53.19V108.8C0 115.04 3.33 120.8 8.73 123.92L56.89 151.72C59.2 153.05 61.74 153.81 64.31 154.01V119.64ZM122.51 38.07L116.15 34.4V61.45C116.15 68.13 112.55 74.36 106.76 77.71L66.93 100.7V154.02C69.5 153.83 72.04 153.07 74.35 151.73L122.51 123.93C127.91 120.81 131.24 115.05 131.24 108.81V53.2C131.24 46.96 127.91 41.2 122.51 38.08V38.07ZM50.52 61.45C50.52 67.2 53.61 72.56 58.6 75.44L64.31 78.74V7.97998C61.74 8.16998 59.2 8.92998 56.89 10.27L50.53 13.94V61.44L50.52 61.45Z" fill="white"/>
</g>
</g>
<defs>
<clipPath id="clip0_1201_2">
<rect width="568" height="154" fill="white"/>
</clipPath>
</defs>
</svg>
