<svg xmlns="http://www.w3.org/2000/svg" fill="none" viewBox="0 0 25 25" class="size-4">
  <path fill="white" d="M4.5 18.5a.967.967 0 0 1-.712-.288.968.968 0 0 1-.288-.712c0-.283.096-.52.288-.712A.967.967 0 0 1 4.5 16.5h16c.283 0 .52.096.712.288.192.191.288.429.288.712s-.096.52-.288.712a.968.968 0 0 1-.712.288h-16Zm0-5a.967.967 0 0 1-.712-.287.968.968 0 0 1-.288-.713c0-.283.096-.52.288-.713A.967.967 0 0 1 4.5 11.5h16c.283 0 .52.096.712.287.192.192.288.43.288.713s-.096.52-.288.713a.968.968 0 0 1-.712.287h-16Zm0-5a.968.968 0 0 1-.712-.287A.967.967 0 0 1 3.5 7.5c0-.283.096-.52.288-.712A.968.968 0 0 1 4.5 6.5h16c.283 0 .52.096.712.288.192.192.288.429.288.712s-.096.52-.288.713a.968.968 0 0 1-.712.287h-16Z"/>
</svg>